Coordinates
version=1
nRows=38
nColumns=12
inDegrees=yes

Units are S.I. units (second, meters, Newtons, ...)
Angles are in degrees

endheader
time	SC_y	SC_z	SC_x	AC_y	AC_z	AC_x	GH_y	GH_z	GH_yy	EL_x	PS_y
       0.0              -44.73          3.808          56.53          45.03         -1.065         -19.41         -45.28          42.83          22.11          68.45          39.03
   0.04158              -44.72          3.813          56.53          45.04         -1.064         -19.41         -45.28          42.84          22.12          68.45          39.03
   0.08316              -44.72          3.818          56.53          45.04         -1.062         -19.41         -45.29          42.84          22.14          68.45          39.03
    0.1247              -44.72          3.823          56.53          45.04         -1.061          -19.4         -45.29          42.85          22.15          68.45          39.03
    0.1663              -44.71          3.829          56.53          45.04         -1.059          -19.4          -45.3          42.86          22.17          68.45          39.02
    0.2079              -44.71          3.836          56.52          45.04         -1.057         -19.39          -45.3          42.86          22.18          68.45          39.02
    0.2495               -44.7          3.842          56.52          45.04         -1.056         -19.38          -45.3          42.87           22.2          68.46          39.02
     0.291              -44.69           3.85          56.52          45.04         -1.054         -19.38         -45.31          42.88          22.22          68.46          39.01
    0.3326              -44.69          3.857          56.52          45.04         -1.052         -19.37         -45.31          42.89          22.24          68.46          39.01
    0.3742              -44.68          3.865          56.52          45.04         -1.049         -19.37         -45.32           42.9          22.26          68.46          39.01
    0.4158              -44.67          3.874          56.51          45.04         -1.047         -19.36         -45.33          42.91          22.28          68.46           39.0
    0.4574              -44.66          3.884          56.51          45.04         -1.044         -19.35         -45.33          42.92          22.31          68.47           39.0
    0.4989              -44.66          3.894          56.51          45.04         -1.041         -19.34         -45.34          42.94          22.33          68.47          38.99
    0.5405              -44.65          3.905          56.51          45.05         -1.038         -19.33         -45.35          42.95          22.36          68.47          38.99
    0.5821              -44.64          3.917          56.51          45.05         -1.035         -19.32         -45.36          42.96          22.39          68.48          38.98
    0.6237              -44.63           3.93           56.5          45.05         -1.032         -19.31         -45.36          42.98          22.42          68.48          38.98
    0.6653              -44.61          3.944           56.5          45.05         -1.028          -19.3         -45.37           43.0          22.46          68.48          38.97
    0.7068               -44.6           3.96           56.5          45.05         -1.024         -19.29         -45.38          43.02           22.5          68.49          38.96
    0.7484              -44.59          3.977          56.49          45.05         -1.019         -19.27          -45.4          43.04          22.54          68.49          38.95
      0.79              -44.57          3.995          56.49          45.05         -1.014         -19.26         -45.41          43.06          22.59           68.5          38.94
    0.8316              -44.55          4.015          56.48          45.06         -1.009         -19.24         -45.42          43.08          22.64           68.5          38.93
    0.8731              -44.53          4.037          56.48          45.06         -1.002         -19.22         -45.44          43.11           22.7          68.51          38.92
    0.9147              -44.51          4.062          56.47          45.06        -0.9958          -19.2         -45.45          43.14          22.76          68.51          38.91
    0.9563              -44.49          4.089          56.47          45.06        -0.9884         -19.18         -45.47          43.18          22.83          68.52           38.9
    0.9979              -44.47           4.12          56.46          45.07        -0.9802         -19.15         -45.49          43.21          22.91          68.53          38.88
     1.039              -44.44          4.153          56.45          45.07         -0.971         -19.12         -45.52          43.25          22.99          68.54          38.87
     1.081               -44.4          4.191          56.44          45.08        -0.9607         -19.09         -45.54           43.3          23.09          68.55          38.85
     1.123              -44.37          4.234          56.43          45.08        -0.9491         -19.05         -45.57          43.35           23.2          68.56          38.83
     1.164              -44.33          4.282          56.42          45.08         -0.936         -19.01          -45.6          43.41          23.32          68.57           38.8
     1.206              -44.28          4.337          56.41          45.09        -0.9212         -18.97         -45.64          43.48          23.46          68.58          38.78
     1.247              -44.23          4.399           56.4           45.1        -0.9042         -18.91         -45.68          43.56          23.62           68.6          38.75
     1.289              -44.17           4.47          56.38           45.1        -0.8848         -18.85         -45.73          43.64           23.8          68.62          38.71
     1.331               -44.1          4.553          56.36          45.11        -0.8623         -18.78         -45.79          43.75          24.01          68.64          38.67
     1.372              -44.02          4.649          56.34          45.12        -0.8362          -18.7         -45.85          43.86          24.26          68.66          38.63
     1.414              -43.92          4.761          56.31          45.14        -0.8056         -18.61         -45.93           44.0          24.54          68.69          38.57
     1.455              -43.81          4.894          56.28          45.15        -0.7696         -18.49         -46.02          44.17          24.88          68.73          38.51
     1.497              -43.68          5.051          56.25          45.17        -0.7269         -18.36         -46.12          44.36          25.28          68.77          38.43
     1.538              -43.52           5.24          56.21          45.19        -0.6756          -18.2         -46.25          44.59          25.76          68.82          38.34
